<svg width="120" height="120" viewBox="0 0 120 120" xmlns="http://www.w3.org/2000/svg">
  <defs>
    <linearGradient id="bg" x1="0%" y1="0%" x2="100%" y2="100%">
      <stop offset="0%" style="stop-color:#5382F6;stop-opacity:1" />
      <stop offset="100%" style="stop-color:#46BA74;stop-opacity:1" />
    </linearGradient>
  </defs>
  
  <!-- Background -->
  <rect width="120" height="120" rx="8" fill="url(#bg)"/>
  
  <!-- Audio waves -->
  <g fill="white" opacity="0.9">
    <!-- Center circle (speaker) -->
    <circle cx="60" cy="60" r="8" fill="white"/>
    
    <!-- Sound waves -->
    <path d="M75 45 Q85 55 85 60 Q85 65 75 75" stroke="white" stroke-width="3" fill="none" stroke-linecap="round"/>
    <path d="M82 38 Q95 50 95 60 Q95 70 82 82" stroke="white" stroke-width="2.5" fill="none" stroke-linecap="round" opacity="0.8"/>
    <path d="M89 30 Q105 45 105 60 Q105 75 89 90" stroke="white" stroke-width="2" fill="none" stroke-linecap="round" opacity="0.6"/>
    
    <!-- Left side waves (mirrored) -->
    <path d="M45 45 Q35 55 35 60 Q35 65 45 75" stroke="white" stroke-width="3" fill="none" stroke-linecap="round"/>
    <path d="M38 38 Q25 50 25 60 Q25 70 38 82" stroke="white" stroke-width="2.5" fill="none" stroke-linecap="round" opacity="0.8"/>
    <path d="M31 30 Q15 45 15 60 Q15 75 31 90" stroke="white" stroke-width="2" fill="none" stroke-linecap="round" opacity="0.6"/>
  </g>
  
  <!-- Musical note accent -->
  <text x="60" y="100" font-family="Arial, sans-serif" font-size="16" fill="white" text-anchor="middle" opacity="0.7">♪</text>
</svg>